# xmcd
#
# Track frame offsets:
#	150
#	17845
#	33339
#	51286
#	67463
#	85185
#	100729
#
# Disc length: 1557 seconds
#
# Revision: 0
# Processed by: cddbd v1.5.2PL0 Copyright (c) Steve Scherf et al.
# Submitted via: EasyCDDAExtractor 2010.6.0.0
#
DISCID=5a061307
DTITLE=간미연 - WATCH
DYEAR=2011
DGENRE=Dance
TTITLE0=SunShine(Duet.Jun.K(2PM준수))
TTITLE1=파파라치(Feat.에릭)
TTITLE2=바보같은 여자라(Feat.방탄소년단)
TTITLE3=미쳐가
TTITLE4=SunShine(inst.)
TTITLE5=파파라치(inst.)
TTITLE6=미쳐가(inst.)
EXTD=
EXTT0=
EXTT1=
EXTT2=
EXTT3=
EXTT4=
EXTT5=
EXTT6=
PLAYORDER=
